<?xml version="1.0" encoding="UTF-8" standalone="no"?>
<!-- Created with Inkscape (http://www.inkscape.org/) -->

<svg
   width="700"
   height="572"
   viewBox="0 0 185.20833 151.34167"
   version="1.1"
   id="svg4096"
   inkscape:version="1.2 (1:1.2+202206011327+fc4e4096c5)"
   sodipodi:docname="manufactur.svg"
   xmlns:inkscape="http://www.inkscape.org/namespaces/inkscape"
   xmlns:sodipodi="http://sodipodi.sourceforge.net/DTD/sodipodi-0.dtd"
   xmlns:xlink="http://www.w3.org/1999/xlink"
   xmlns="http://www.w3.org/2000/svg"
   xmlns:svg="http://www.w3.org/2000/svg">
  <sodipodi:namedview
     id="namedview4098"
     pagecolor="#ffffff"
     bordercolor="#000000"
     borderopacity="0.25"
     inkscape:showpageshadow="2"
     inkscape:pageopacity="0.0"
     inkscape:pagecheckerboard="0"
     inkscape:deskcolor="#d1d1d1"
     inkscape:document-units="mm"
     showgrid="false"
     inkscape:zoom="0.17386018"
     inkscape:cx="241.57343"
     inkscape:cy="779.36191"
     inkscape:window-width="1360"
     inkscape:window-height="703"
     inkscape:window-x="0"
     inkscape:window-y="0"
     inkscape:window-maximized="1"
     inkscape:current-layer="layer1" />
  <defs
     id="defs4093">
    <linearGradient
       inkscape:collect="always"
       xlink:href="#linearGradient19734"
       id="linearGradient19736"
       x1="271.77713"
       y1="429.65259"
       x2="276.06342"
       y2="658.14484"
       gradientUnits="userSpaceOnUse" />
    <linearGradient
       inkscape:collect="always"
       id="linearGradient19734">
      <stop
         style="stop-color:#4de7a8;stop-opacity:1;"
         offset="0"
         id="stop19730" />
      <stop
         style="stop-color:#2d7782;stop-opacity:0.73725492;"
         offset="1"
         id="stop19732" />
    </linearGradient>
    <linearGradient
       inkscape:collect="always"
       xlink:href="#linearGradient19734"
       id="linearGradient21013"
       gradientUnits="userSpaceOnUse"
       x1="271.77713"
       y1="429.65259"
       x2="276.06342"
       y2="658.14484"
       gradientTransform="translate(4.9976939,-2.8600977)" />
    <filter
       inkscape:collect="always"
       style="color-interpolation-filters:sRGB"
       id="filter21016"
       x="-0.046891296"
       y="-0.058614118"
       width="1.0937826"
       height="1.1172282">
      <feGaussianBlur
         inkscape:collect="always"
         stdDeviation="3.3084414"
         id="feGaussianBlur21018" />
    </filter>
  </defs>
  <g
     inkscape:label="Layer 1"
     inkscape:groupmode="layer"
     id="layer1">
    <g
       id="g21022"
       transform="translate(-179.67642,-431.17793)">
      <path
         d="m 244.06577,529.49917 h 84.66667 c 6.985,0 12.7,-5.715 12.7,-12.7 v -50.8 c 0,-6.985 -5.715,-12.7 -12.7,-12.7 H 299.0991 v 33.86667 l -12.7,-8.46667 -12.69999,8.46667 v -33.86667 h -29.63334 c -6.985,0 -12.7,5.715 -12.7,12.7 v 50.8 c 0,6.985 5.715,12.7 12.7,12.7 z m 97.36667,16.93334 h -127 v -84.66667 c 0,-9.31333 -7.62,-16.93333 -16.93333,-16.93333 h -8.7048 c -4.41854,0 -8.22854,3.81 -8.22854,8.46666 0,4.65667 3.81,8.46667 8.22854,8.46667 h 4.47146 c 2.33892,0 4.23334,1.89442 4.23334,4.23333 v 88.66188 c 0,4.65667 3.81,8.46667 8.46666,8.46667 l 17.70592,-2.4e-4 c -0.48154,1.56128 -0.77258,2.99003 -0.77258,4.4717 0,7.01145 5.68854,12.7 12.7,12.7 7.01145,0 12.7,-5.68855 12.7,-12.7 0,-1.49252 -0.29898,-2.90248 -0.77179,-4.23334 h 52.36104 c -0.47282,1.33006 -0.7747,2.74109 -0.7747,4.23334 -0.0146,7.01145 5.67398,12.7 12.68544,12.7 7.01411,0 12.70265,-5.6859 12.70265,-12.46188 0,-1.49251 -0.29633,-2.90248 -0.76914,-4.23333 l 17.69533,2.4e-4 c 4.66116,-0.23837 8.47116,-4.04837 8.47116,-8.94316 0,-4.41854 -3.81,-8.22854 -8.46666,-8.22854 z"
         id="path19358"
         style="fill:url(#linearGradient19736);fill-opacity:1;stroke-width:0.264583" />
      <path
         d="m 249.06346,526.63907 h 84.66667 c 6.985,0 12.7,-5.715 12.7,-12.7 v -50.8 c 0,-6.985 -5.715,-12.7 -12.7,-12.7 h -29.63334 v 33.86667 l -12.7,-8.46667 -12.69999,8.46667 v -33.86667 h -29.63334 c -6.985,0 -12.7,5.715 -12.7,12.7 v 50.8 c 0,6.985 5.715,12.7 12.7,12.7 z m 97.36667,16.93334 h -127 v -84.66667 c 0,-9.31333 -7.62,-16.93333 -16.93333,-16.93333 h -8.7048 c -4.41854,0 -8.22854,3.81 -8.22854,8.46666 0,4.65667 3.81,8.46667 8.22854,8.46667 h 4.47146 c 2.33892,0 4.23334,1.89442 4.23334,4.23333 v 88.66188 c 0,4.65667 3.81,8.46667 8.46666,8.46667 l 17.70592,-2.4e-4 c -0.48154,1.56128 -0.77258,2.99003 -0.77258,4.4717 0,7.01145 5.68854,12.7 12.7,12.7 7.01145,0 12.7,-5.68855 12.7,-12.7 0,-1.49252 -0.29898,-2.90248 -0.77179,-4.23334 h 52.36104 c -0.47282,1.33006 -0.7747,2.74109 -0.7747,4.23334 -0.0146,7.01145 5.67398,12.7 12.68544,12.7 7.01411,0 12.70265,-5.6859 12.70265,-12.46188 0,-1.49251 -0.29633,-2.90248 -0.76914,-4.23333 l 17.69533,2.4e-4 c 4.66116,-0.23837 8.47116,-4.04837 8.47116,-8.94316 0,-4.41854 -3.81,-8.22854 -8.46666,-8.22854 z"
         id="path19358-8"
         style="fill:url(#linearGradient21013);fill-opacity:1;stroke-width:0.264583;filter:url(#filter21016)" />
    </g>
  </g>
</svg>
