<?xml version="1.0" encoding="UTF-8" standalone="no"?>
<!-- Created with Inkscape (http://www.inkscape.org/) -->

<svg
   width="627"
   height="563"
   viewBox="0 0 165.89375 148.96042"
   version="1.1"
   id="svg385"
   inkscape:version="1.2 (1:1.2+202206011327+fc4e4096c5)"
   sodipodi:docname="purchaseing.svg"
   xmlns:inkscape="http://www.inkscape.org/namespaces/inkscape"
   xmlns:sodipodi="http://sodipodi.sourceforge.net/DTD/sodipodi-0.dtd"
   xmlns:xlink="http://www.w3.org/1999/xlink"
   xmlns="http://www.w3.org/2000/svg"
   xmlns:svg="http://www.w3.org/2000/svg">
  <sodipodi:namedview
     id="namedview387"
     pagecolor="#ffffff"
     bordercolor="#000000"
     borderopacity="0.25"
     inkscape:showpageshadow="2"
     inkscape:pageopacity="0.0"
     inkscape:pagecheckerboard="0"
     inkscape:deskcolor="#d1d1d1"
     inkscape:document-units="mm"
     showgrid="false"
     inkscape:zoom="0.34772035"
     inkscape:cx="445.7605"
     inkscape:cy="127.9764"
     inkscape:window-width="1360"
     inkscape:window-height="703"
     inkscape:window-x="0"
     inkscape:window-y="0"
     inkscape:window-maximized="1"
     inkscape:current-layer="layer1" />
  <defs
     id="defs382">
    <linearGradient
       inkscape:collect="always"
       xlink:href="#linearGradient5874"
       id="linearGradient5876"
       x1="141.3196"
       y1="-7.8443332"
       x2="139.30811"
       y2="217.6834"
       gradientUnits="userSpaceOnUse"
       gradientTransform="translate(-49.114989,52.881819)" />
    <linearGradient
       inkscape:collect="always"
       id="linearGradient5874">
      <stop
         style="stop-color:#4de7a8;stop-opacity:1;"
         offset="0"
         id="stop5870" />
      <stop
         style="stop-color:#0f0d60;stop-opacity:0;"
         offset="1"
         id="stop5872" />
    </linearGradient>
    <linearGradient
       inkscape:collect="always"
       xlink:href="#linearGradient5874"
       id="linearGradient5958"
       gradientUnits="userSpaceOnUse"
       x1="141.3196"
       y1="-7.8443332"
       x2="139.30811"
       y2="217.6834"
       gradientTransform="translate(-51.167183,53.090174)" />
    <filter
       inkscape:collect="always"
       style="color-interpolation-filters:sRGB"
       id="filter5961"
       x="-0.04469711"
       y="-0.050274398"
       width="1.0893942"
       height="1.1005488">
      <feGaussianBlur
         inkscape:collect="always"
         stdDeviation="2.8377104"
         id="feGaussianBlur5963" />
    </filter>
  </defs>
  <g
     inkscape:label="Layer 1"
     inkscape:groupmode="layer"
     id="layer1">
    <g
       id="g562"
       transform="translate(5.2566176,-38.419885)">
      <path
         d="m 154.54248,136.06711 c -3.47133,-4.71223 -10.09121,-5.73088 -14.79815,-2.24076 l -31.67062,23.32831 H 76.164961 c -2.31457,0 -3.99521,-1.91823 -3.99521,-4.23069 0,-2.3151 1.91823,-4.23333 3.99521,-4.23333 h 20.70365 c 3.995209,0 8.135929,-2.87866 8.829139,-7.04321 0.8599,-5.29166 -3.20675,-9.89012 -8.366119,-9.89012 h -42.56352 c -6.905626,0 -14.054666,2.4474 -19.610916,6.94532 L 22.85407,148.68799 8.201446,148.4496 c -2.076715,0 -3.995208,2.16959 -3.995208,4.47146 v 25.39471 c 0,2.33363 1.918493,4.23863 3.995208,4.23863 h 91.572285 c 5.828769,0 11.620499,-1.90182 16.324789,-5.36311 l 35.74521,-26.33133 c 5.15937,-3.46869 6.16479,-10.08327 2.69875,-14.79285 z M 78.104361,93.389837 c -2.01084,-0.29106 -4.65667,-1.24355 -6.985,-2.09022 l -1.29646,-0.44979 c -3.30729,-1.4023 -6.93209,0.55562 -8.09625,3.62479 -1.16417,3.06916 0.56118,6.932083 3.86027,8.106833 l 1.23163,0.43815 c 2.24526,0.80989 4.73075,1.61264 7.24694,2.19922 v 3.25226 c 0,3.50572 2.83898,6.35 6.34471,6.35 3.50573,0 6.35,-2.84428 6.35,-6.35 v -2.75167 c 6.68602,-1.51421 11.34534,-5.781153 12.19729,-12.096743 2.298699,-13.2424 -10.28964,-16.84338 -17.04445,-18.77219 l -1.40097,-0.48419 c -6.95855,-1.973794 -6.56167,-2.825754 -6.37646,-3.913188 0.30585,-1.790175 4.04812,-2.661715 8.52223,-1.955545 1.30651,0.20672 3.00831,0.673895 5.19906,1.434575 3.31523,1.132684 6.93473,-0.61171 8.07508,-3.926415 1.14036,-3.3147 -0.61092,-6.92944 -3.92641,-8.07773 -2.01137,-0.69506 -3.683,-1.15306 -5.24404,-1.51369 v -2.97656 c 0,-3.50573 -2.84428,-6.350001 -6.35,-6.350001 -3.50574,0 -6.34472,2.844271 -6.34472,6.350001 v 2.78342 c -6.67808,1.51077 -11.3612,5.74939 -12.68412,12.06764 -2.03729,13.088953 10.74208,16.846043 15.5575,18.274793 l 1.71926,0.49609 c 8.37671,2.39765 8.24178,3.1459 8.02746,4.40267 -0.30109,1.79519 -4.03172,2.66832 -8.58255,1.92749 z"
         id="path132"
         style="fill:url(#linearGradient5876);fill-opacity:1;stroke-width:0.264583" />
      <path
         d="m 152.49029,136.27546 c -3.47133,-4.71223 -10.09121,-5.73088 -14.79815,-2.24076 l -31.67062,23.32831 H 74.112771 c -2.31457,0 -3.99521,-1.91823 -3.99521,-4.23069 0,-2.3151 1.91823,-4.23333 3.99521,-4.23333 h 20.70365 c 3.99521,0 8.135929,-2.87866 8.829139,-7.04321 0.8599,-5.29166 -3.20675,-9.89012 -8.366119,-9.89012 h -42.56352 c -6.905624,0 -14.054664,2.4474 -19.610914,6.94532 l -12.30313,9.98536 -14.65262,-0.23839 c -2.07672,0 -3.99521,2.16959 -3.99521,4.47146 v 25.39471 c 0,2.33363 1.91849,4.23863 3.99521,4.23863 h 91.572284 c 5.828769,0 11.620499,-1.90182 16.324789,-5.36311 l 35.74521,-26.33133 c 5.15937,-3.46869 6.16479,-10.08327 2.69875,-14.79285 z M 76.052171,93.59819 c -2.01084,-0.29106 -4.65667,-1.24355 -6.985,-2.09022 l -1.29646,-0.44979 c -3.30729,-1.4023 -6.93209,0.55562 -8.09625,3.62479 -1.16417,3.06916 0.56118,6.93208 3.86027,8.10683 l 1.23163,0.43815 c 2.24526,0.80989 4.73075,1.61264 7.24694,2.19922 v 3.25226 c 0,3.50572 2.83898,6.35 6.34471,6.35 3.50573,0 6.35,-2.84428 6.35,-6.35 v -2.75167 c 6.68602,-1.51421 11.34534,-5.78115 12.19729,-12.09674 2.2987,-13.242398 -10.28964,-16.843378 -17.04445,-18.772188 l -1.40097,-0.48419 c -6.95855,-1.973794 -6.56167,-2.825754 -6.37646,-3.913188 0.30585,-1.790175 4.04812,-2.661715 8.52223,-1.955545 1.30651,0.20672 3.00831,0.673895 5.19906,1.434575 3.31523,1.132684 6.93473,-0.61171 8.07508,-3.926415 1.14036,-3.3147 -0.61092,-6.92944 -3.92641,-8.07773 -2.01137,-0.69506 -3.683,-1.15306 -5.24404,-1.51369 v -2.97656 c 0,-3.50573 -2.84428,-6.350001 -6.35,-6.350001 -3.50574,0 -6.34472,2.844271 -6.34472,6.350001 v 2.78342 c -6.67808,1.51077 -11.3612,5.74939 -12.68412,12.06764 -2.03729,13.088953 10.74208,16.846043 15.5575,18.274793 l 1.71926,0.49609 c 8.37671,2.397648 8.24178,3.145898 8.02746,4.402668 -0.30109,1.79519 -4.03172,2.66832 -8.58255,1.92749 z"
         id="path132-5"
         style="fill:url(#linearGradient5958);fill-opacity:1;stroke-width:0.264583;filter:url(#filter5961)" />
    </g>
  </g>
</svg>
