<?xml version="1.0" encoding="UTF-8" standalone="no"?>
<!-- Created with Inkscape (http://www.inkscape.org/) -->

<svg
   width="422"
   height="550"
   viewBox="0 0 111.65416 145.52083"
   version="1.1"
   id="svg3870"
   inkscape:version="1.2 (1:1.2+202206011327+fc4e4096c5)"
   sodipodi:docname="report.svg"
   xmlns:inkscape="http://www.inkscape.org/namespaces/inkscape"
   xmlns:sodipodi="http://sodipodi.sourceforge.net/DTD/sodipodi-0.dtd"
   xmlns:xlink="http://www.w3.org/1999/xlink"
   xmlns="http://www.w3.org/2000/svg"
   xmlns:svg="http://www.w3.org/2000/svg">
  <sodipodi:namedview
     id="namedview3872"
     pagecolor="#ffffff"
     bordercolor="#000000"
     borderopacity="0.25"
     inkscape:showpageshadow="2"
     inkscape:pageopacity="0.0"
     inkscape:pagecheckerboard="0"
     inkscape:deskcolor="#d1d1d1"
     inkscape:document-units="mm"
     showgrid="false"
     inkscape:zoom="0.49175084"
     inkscape:cx="396.54228"
     inkscape:cy="399.59261"
     inkscape:window-width="1360"
     inkscape:window-height="703"
     inkscape:window-x="0"
     inkscape:window-y="0"
     inkscape:window-maximized="1"
     inkscape:current-layer="layer1" />
  <defs
     id="defs3867">
    <linearGradient
       inkscape:collect="always"
       xlink:href="#linearGradient13403"
       id="linearGradient13405"
       x1="-166.22655"
       y1="70.391914"
       x2="-167.08401"
       y2="265.64944"
       gradientUnits="userSpaceOnUse" />
    <linearGradient
       inkscape:collect="always"
       id="linearGradient13403">
      <stop
         style="stop-color:#4de7a8;stop-opacity:1;"
         offset="0"
         id="stop13399" />
      <stop
         style="stop-color:#2b6e81;stop-opacity:0.6901961;"
         offset="1"
         id="stop13401" />
    </linearGradient>
    <linearGradient
       inkscape:collect="always"
       xlink:href="#linearGradient13403"
       id="linearGradient13647"
       gradientUnits="userSpaceOnUse"
       x1="-166.22655"
       y1="70.391914"
       x2="-167.08401"
       y2="265.64944"
       gradientTransform="translate(0.31138612,-1.9404254)" />
    <filter
       inkscape:collect="always"
       style="color-interpolation-filters:sRGB"
       id="filter13650"
       x="-0.049384748"
       y="-0.037039776"
       width="1.0987695"
       height="1.0740796">
      <feGaussianBlur
         inkscape:collect="always"
         stdDeviation="2.090621"
         id="feGaussianBlur13652" />
    </filter>
  </defs>
  <g
     inkscape:label="Layer 1"
     inkscape:groupmode="layer"
     id="layer1">
    <g
       id="g13697"
       transform="translate(221.38739,-87.057566)">
      <path
         d="m -213.89725,95.339043 c 2.25425,-1.036109 4.90273,-0.666062 6.78656,0.947737 l 10.68388,9.15776 10.68916,-9.15776 c 2.38125,-2.03835 5.87375,-2.03835 8.255,0 l 10.68917,9.15776 10.68917,-9.15776 c 2.38125,-2.03835 5.87375,-2.03835 8.255,0 l 10.68916,9.15776 10.68917,-9.15776 c 1.87854,-1.613799 4.52438,-1.983846 6.77333,-0.947737 2.24896,1.036373 3.70417,3.289829 3.70417,5.768977 v 122.76667 c 0,2.48708 -1.45521,4.73604 -3.70417,5.76791 -2.24895,1.03188 -4.89479,0.66146 -6.77333,-0.9525 l -10.68917,-9.15458 -10.68916,9.15458 c -2.38125,2.03729 -5.87375,2.03729 -8.255,0 l -10.68917,-9.15458 -10.68917,9.15458 c -2.38125,2.03729 -5.87375,2.03729 -8.255,0 l -10.68916,-9.15458 -10.68388,9.15458 c -1.88383,1.61396 -4.53231,1.98438 -6.78656,0.9525 -2.25266,-1.03187 -3.69623,-3.28083 -3.69623,-5.76791 V 101.10802 c 0,-2.479148 1.44357,-4.732869 3.69623,-5.768977 z m 21.70377,37.518977 c -2.33892,0 -4.23333,1.905 -4.23333,4.23333 0,2.32833 1.89441,4.23333 4.23333,4.23333 h 50.8 c 2.32833,0 4.23333,-1.905 4.23333,-4.23333 0,-2.32833 -1.905,-4.23333 -4.23333,-4.23333 z m 0,59.26666 h 50.8 c 2.32833,0 4.23333,-1.905 4.23333,-4.23333 0,-2.32833 -1.905,-4.23333 -4.23333,-4.23333 h -50.8 c -2.33892,0 -4.23333,1.905 -4.23333,4.23333 0,2.32833 1.89441,4.23333 4.23333,4.23333 z m 0,-33.86666 c -2.33892,0 -4.23333,1.905 -4.23333,4.23333 0,2.32833 1.89441,4.23333 4.23333,4.23333 h 50.8 c 2.32833,0 4.23333,-1.905 4.23333,-4.23333 0,-2.32833 -1.905,-4.23333 -4.23333,-4.23333 z"
         id="path13027"
         style="fill:url(#linearGradient13405);fill-opacity:1;stroke-width:0.264583" />
      <path
         d="m -213.58586,93.398618 c 2.25425,-1.036109 4.90273,-0.666062 6.78656,0.947737 l 10.68388,9.157755 10.68916,-9.157755 c 2.38125,-2.03835 5.87375,-2.03835 8.255,0 l 10.68917,9.157755 10.68917,-9.157755 c 2.38125,-2.03835 5.87375,-2.03835 8.255,0 l 10.68916,9.157755 10.68917,-9.157755 c 1.87854,-1.613799 4.52438,-1.983846 6.77333,-0.947737 2.24896,1.036373 3.70417,3.289829 3.70417,5.768975 V 221.93426 c 0,2.48708 -1.45521,4.73604 -3.70417,5.76791 -2.24895,1.03188 -4.89479,0.66146 -6.77333,-0.9525 l -10.68917,-9.15458 -10.68916,9.15458 c -2.38125,2.03729 -5.87375,2.03729 -8.255,0 l -10.68917,-9.15458 -10.68917,9.15458 c -2.38125,2.03729 -5.87375,2.03729 -8.255,0 l -10.68916,-9.15458 -10.68388,9.15458 c -1.88383,1.61396 -4.53231,1.98438 -6.78656,0.9525 -2.25266,-1.03187 -3.69623,-3.28083 -3.69623,-5.76791 V 99.167593 c 0,-2.479146 1.44357,-4.732867 3.69623,-5.768975 z m 21.70377,37.518972 c -2.33892,0 -4.23333,1.905 -4.23333,4.23333 0,2.32833 1.89441,4.23333 4.23333,4.23333 h 50.8 c 2.32833,0 4.23333,-1.905 4.23333,-4.23333 0,-2.32833 -1.905,-4.23333 -4.23333,-4.23333 z m 0,59.26666 h 50.8 c 2.32833,0 4.23333,-1.905 4.23333,-4.23333 0,-2.32833 -1.905,-4.23333 -4.23333,-4.23333 h -50.8 c -2.33892,0 -4.23333,1.905 -4.23333,4.23333 0,2.32833 1.89441,4.23333 4.23333,4.23333 z m 0,-33.86666 c -2.33892,0 -4.23333,1.905 -4.23333,4.23333 0,2.32833 1.89441,4.23333 4.23333,4.23333 h 50.8 c 2.32833,0 4.23333,-1.905 4.23333,-4.23333 0,-2.32833 -1.905,-4.23333 -4.23333,-4.23333 z"
         id="path13027-3"
         style="fill:url(#linearGradient13647);fill-opacity:1;stroke-width:0.264583;filter:url(#filter13650)" />
    </g>
  </g>
</svg>
