<?xml version="1.0" encoding="UTF-8" standalone="no"?>
<!-- Created with Inkscape (http://www.inkscape.org/) -->

<svg
   width="436"
   height="564"
   viewBox="0 0 115.35833 149.225"
   version="1.1"
   id="svg3315"
   inkscape:version="1.2 (1:1.2+202206011327+fc4e4096c5)"
   sodipodi:docname="selling.svg"
   xmlns:inkscape="http://www.inkscape.org/namespaces/inkscape"
   xmlns:sodipodi="http://sodipodi.sourceforge.net/DTD/sodipodi-0.dtd"
   xmlns:xlink="http://www.w3.org/1999/xlink"
   xmlns="http://www.w3.org/2000/svg"
   xmlns:svg="http://www.w3.org/2000/svg">
  <sodipodi:namedview
     id="namedview3317"
     pagecolor="#ffffff"
     bordercolor="#000000"
     borderopacity="0.25"
     inkscape:showpageshadow="2"
     inkscape:pageopacity="0.0"
     inkscape:pagecheckerboard="0"
     inkscape:deskcolor="#d1d1d1"
     inkscape:document-units="mm"
     showgrid="false"
     inkscape:zoom="0.34772035"
     inkscape:cx="221.44231"
     inkscape:cy="654.26138"
     inkscape:window-width="1360"
     inkscape:window-height="703"
     inkscape:window-x="0"
     inkscape:window-y="0"
     inkscape:window-maximized="1"
     inkscape:current-layer="layer1" />
  <defs
     id="defs3312">
    <linearGradient
       inkscape:collect="always"
       xlink:href="#linearGradient9160"
       id="linearGradient9162"
       x1="186.91736"
       y1="270.63953"
       x2="183.5757"
       y2="498.57217"
       gradientUnits="userSpaceOnUse" />
    <linearGradient
       inkscape:collect="always"
       id="linearGradient9160">
      <stop
         style="stop-color:#4de7a8;stop-opacity:1;"
         offset="0"
         id="stop9156" />
      <stop
         style="stop-color:#2d7484;stop-opacity:0.71372551;"
         offset="1"
         id="stop9158" />
    </linearGradient>
    <linearGradient
       inkscape:collect="always"
       xlink:href="#linearGradient9160"
       id="linearGradient11896"
       gradientUnits="userSpaceOnUse"
       x1="186.91736"
       y1="270.63953"
       x2="183.5757"
       y2="498.57217"
       gradientTransform="translate(-0.60645008,-1.3407374)" />
    <filter
       inkscape:collect="always"
       style="color-interpolation-filters:sRGB"
       id="filter11899"
       x="-0.067394296"
       y="-0.050545721"
       width="1.1347886"
       height="1.1010914">
      <feGaussianBlur
         inkscape:collect="always"
         stdDeviation="2.8530252"
         id="feGaussianBlur11901" />
    </filter>
  </defs>
  <g
     inkscape:label="Layer 1"
     inkscape:groupmode="layer"
     id="layer1">
    <g
       id="g3439"
       transform="translate(-114.5178,-269.18325)">
      <g
         id="g11936">
        <path
           d="m 222.21739,310.50003 h -33.86667 v -33.86666 z m -33.86667,8.46667 h 33.86667 v 80.43334 c 0,7.0141 -5.6859,12.7 -12.7,12.7 h -76.2 c -7.0141,0 -12.7,-5.68855 -12.7,-12.7 V 289.33337 c 0,-7.01411 5.6859,-12.7 12.7,-12.7 h 46.56667 l 0.001,33.86666 c -0.001,4.68313 3.78251,8.46667 8.46563,8.46667 z m -50.8,-19.05 c 0,1.15888 0.96044,2.11667 2.11667,2.11667 h 21.16667 c 1.16416,0 2.11666,-0.95779 2.11666,-2.11667 v -4.23333 c 0,-1.15623 -0.9525,-2.11667 -2.11666,-2.11667 h -21.16667 c -1.15623,0 -2.11667,0.96044 -2.11667,2.11667 z m 2.11667,19.05 h 21.16667 c 1.16416,0 2.11666,-0.9525 2.11666,-2.11667 v -4.23333 c 0,-1.16417 -0.9525,-2.11667 -2.11666,-2.11667 h -21.16667 c -1.15623,0 -2.11667,0.9525 -2.11667,2.11667 v 4.23333 c 0,1.16417 0.96044,2.11667 2.11667,2.11667 z m 33.20521,41.48667 -1.69334,-0.42334 c -6.0325,-1.85208 -5.9002,-2.93687 -5.68854,-3.88937 0.3638,-2.06693 4.38944,-2.57149 8.00894,-2.01745 1.48008,0.22326 3.10356,0.74401 4.65402,1.28164 2.74902,0.95092 5.77586,-0.51276 6.73365,-3.26496 0.95911,-2.76225 -0.50033,-5.7785 -3.26232,-6.73893 -1.91002,-0.65723 -3.46868,-1.07897 -4.91066,-1.39515 v -1.75578 c 0,-2.91835 -2.36882,-5.29166 -5.29167,-5.29166 -2.92285,0 -5.29167,2.37305 -5.29167,5.29166 v 1.58539 c -5.93195,1.27211 -10.11237,4.97628 -11.06487,10.50607 -1.9595,11.33475 8.78152,14.48594 13.36675,15.83267 l 1.53776,0.44662 c 7.747,2.21588 7.62,2.96068 7.38716,4.30741 -0.3638,2.06693 -4.38943,2.57969 -8.01952,2.01745 -1.83568,-0.27278 -4.18306,-1.11628 -6.26004,-1.86029 l -1.18242,-0.42994 c -2.75431,-0.95092 -5.77586,0.47942 -6.75217,3.23321 -0.97155,2.75431 0.47123,5.7785 3.22792,6.75481 l 1.12871,0.39688 c 2.05264,0.73792 4.33388,1.47902 6.63046,1.98755 v 1.78884 c 0,2.91836 2.36881,5.29167 5.29167,5.29167 2.92285,0 5.29166,-2.37305 5.29166,-5.29167 v -1.6547 c 5.91609,-1.26815 10.10973,-4.90273 11.06752,-10.43252 1.97141,-11.4607 -9.00879,-14.60924 -14.909,-16.27611 z"
           id="path5443-7"
           style="fill:url(#linearGradient9162);fill-opacity:1;stroke-width:0.264583" />
        <path
           d="m 221.61093,309.1593 h -33.86667 v -33.86666 z m -33.86667,8.46667 h 33.86667 v 80.43334 c 0,7.0141 -5.6859,12.7 -12.7,12.7 h -76.2 c -7.0141,0 -12.7,-5.68855 -12.7,-12.7 V 287.99264 c 0,-7.01411 5.6859,-12.7 12.7,-12.7 h 46.56667 l 0.001,33.86666 c -0.001,4.68313 3.78251,8.46667 8.46563,8.46667 z m -50.8,-19.05 c 0,1.15888 0.96044,2.11667 2.11667,2.11667 h 21.16667 c 1.16416,0 2.11666,-0.95779 2.11666,-2.11667 v -4.23333 c 0,-1.15623 -0.9525,-2.11667 -2.11666,-2.11667 h -21.16667 c -1.15623,0 -2.11667,0.96044 -2.11667,2.11667 z m 2.11667,19.05 h 21.16667 c 1.16416,0 2.11666,-0.9525 2.11666,-2.11667 v -4.23333 c 0,-1.16417 -0.9525,-2.11667 -2.11666,-2.11667 h -21.16667 c -1.15623,0 -2.11667,0.9525 -2.11667,2.11667 v 4.23333 c 0,1.16417 0.96044,2.11667 2.11667,2.11667 z m 33.20521,41.48667 -1.69334,-0.42334 c -6.0325,-1.85208 -5.9002,-2.93687 -5.68854,-3.88937 0.3638,-2.06693 4.38944,-2.57149 8.00894,-2.01745 1.48008,0.22326 3.10356,0.74401 4.65402,1.28164 2.74902,0.95092 5.77586,-0.51276 6.73365,-3.26496 0.95911,-2.76225 -0.50033,-5.7785 -3.26232,-6.73893 -1.91002,-0.65723 -3.46868,-1.07897 -4.91066,-1.39515 v -1.75578 c 0,-2.91835 -2.36882,-5.29166 -5.29167,-5.29166 -2.92285,0 -5.29167,2.37305 -5.29167,5.29166 v 1.58539 c -5.93195,1.27211 -10.11237,4.97628 -11.06487,10.50607 -1.9595,11.33475 8.78152,14.48594 13.36675,15.83267 l 1.53776,0.44662 c 7.747,2.21588 7.62,2.96068 7.38716,4.30741 -0.3638,2.06693 -4.38943,2.57969 -8.01952,2.01745 -1.83568,-0.27278 -4.18306,-1.11628 -6.26004,-1.86029 l -1.18242,-0.42994 c -2.75431,-0.95092 -5.77586,0.47942 -6.75217,3.23321 -0.97155,2.75431 0.47123,5.7785 3.22792,6.75481 l 1.12871,0.39688 c 2.05264,0.73792 4.33388,1.47902 6.63046,1.98755 v 1.78884 c 0,2.91836 2.36881,5.29167 5.29167,5.29167 2.92285,0 5.29166,-2.37305 5.29166,-5.29167 v -1.6547 c 5.91609,-1.26815 10.10973,-4.90273 11.06752,-10.43252 1.97141,-11.4607 -9.00879,-14.60924 -14.909,-16.27611 z"
           id="path5443-7-7"
           style="mix-blend-mode:normal;fill:url(#linearGradient11896);fill-opacity:1;stroke-width:0.264583;filter:url(#filter11899)" />
      </g>
    </g>
  </g>
</svg>
